<svg xmlns="http://www.w3.org/2000/svg" fill="#17275e" viewBox="0 0 24 24" id="Dentistry-Fill--Streamline-Sharp-Fill-Material" height="24" width="24">
  <desc>
    Dentistry Fill Streamline Icon: https://streamlinehq.com
  </desc>
  <path fill="#17275e" d="M17 2.125c1.1 0 2.04165 0.391665 2.825 1.175C20.60835 4.083335 21 5.025 21 6.125c0 0.18335 -0.0125 0.42915 -0.0375 0.7375 -0.025 0.30835 -0.0625 0.6625 -0.1125 1.0625L19.475 18c-0.08335 0.68335 -0.38335 1.2125 -0.9 1.5875s-1.06665 0.5625 -1.65 0.5625c-0.35 0 -0.69165 -0.075 -1.025 -0.225 -0.33335 -0.15 -0.61665 -0.39165 -0.85 -0.725l-2.675 -3.9c-0.03335 -0.05 -0.0875 -0.09165 -0.1625 -0.125 -0.075 -0.03335 -0.15415 -0.05 -0.2375 -0.05 -0.03335 0 -0.16665 0.075 -0.4 0.225l-2.6 3.775c-0.23335 0.35 -0.525 0.60835 -0.875 0.775 -0.35 0.16665 -0.70835 0.25 -1.075 0.25 -0.58335 0 -1.12915 -0.1875 -1.6375 -0.5625C4.879165 19.2125 4.583335 18.675 4.5 17.975l-1.35 -10.05c-0.05 -0.4 -0.0875 -0.75415 -0.1125 -1.0625C3.0125 6.55415 3 6.30835 3 6.125c0 -1.1 0.391665 -2.041665 1.175 -2.825C4.958335 2.516665 5.9 2.125 7 2.125c0.6 0 1.07915 0.079165 1.4375 0.2375 0.35835 0.158335 0.70415 0.329165 1.0375 0.5125 0.33335 0.183335 0.6875 0.354165 1.0625 0.5125 0.375 0.158335 0.8625 0.2375 1.4625 0.2375 0.6 0 1.0875 -0.079165 1.4625 -0.2375s0.72915 -0.329165 1.0625 -0.5125c0.33335 -0.183335 0.68335 -0.354165 1.05 -0.5125 0.36665 -0.158335 0.84165 -0.2375 1.425 -0.2375Z" stroke-width="0.5"></path>
</svg>