<svg width="1882" height="848" xmlns="http://www.w3.org/2000/svg" xmlns:xlink="http://www.w3.org/1999/xlink" xml:space="preserve" overflow="hidden"><defs><clipPath id="clip0"><rect x="1223" y="953" width="433" height="131"/></clipPath><clipPath id="clip1"><rect x="1223" y="953" width="433" height="131"/></clipPath><clipPath id="clip2"><rect x="1225" y="603" width="432" height="370"/></clipPath><clipPath id="clip3"><rect x="1225" y="604" width="432" height="369"/></clipPath></defs><g transform="translate(-1223 -385)"><g clip-path="url(#clip0)"><g clip-path="url(#clip1)"><g><path d="M185.985 171 246.465 171 241.02 81 247.5 81 247.5 67.5 238.5 67.5 238.5 45 243 45 243 40.5 220.5 34.02 220.5 27C220.594 24.9588 219.3 23.1109 217.35 22.5L214.65 22.5C212.7 23.1109 211.406 24.9588 211.5 27L211.5 34.02 189 40.5 189 45 193.5 45 193.5 67.5 184.5 67.5 184.5 81 190.98 81Z" fill="#24346E" transform="matrix(1 0 0 1.14131 1223 599.136)"/><path d="M270 54 315 54 315 63 270 63Z" fill="#24346E" transform="matrix(-1 -1.3977e-16 1.22465e-16 -1.14131 1808 732.669)"/><path d="M271.319 26.856 317.305 26.856 317.305 36.0532 271.319 36.0532Z" fill="#24346E" transform="matrix(-0.904066 0.427392 -0.374476 -1.03182 1788.83 540.895)"/><path d="M271.319 83.511 317.305 83.511 317.305 92.7083 271.319 92.7083Z" fill="#24346E" transform="matrix(-0.904066 -0.427392 0.374476 -1.03182 1744.1 914.274)"/><path d="M117 54 162 54 162 63 117 63Z" fill="#24346E" transform="matrix(1 0 0 1.14131 1223 599.136)"/><path d="M124.163 26.856 170.149 26.856 170.149 36.0532 124.163 36.0532Z" fill="#24346E" transform="matrix(0.904066 0.427392 -0.374476 1.03182 1245.73 538.892)"/><path d="M124.163 83.511 170.149 83.511 170.149 92.7083 124.163 92.7083Z" fill="#24346E" transform="matrix(0.904066 -0.427392 0.374476 1.03182 1200.95 669.497)"/><path d="M378.225 383.76C369.615 380.336 360.484 378.404 351.225 378.045L351.225 378.045C341.967 378.413 332.838 380.345 324.225 383.76 318.5 386.154 312.418 387.583 306.225 387.99L306.225 387.99C300.034 387.573 293.954 386.144 288.225 383.76 279.615 380.336 270.484 378.404 261.225 378.045L261.225 378.045C251.967 378.413 242.838 380.345 234.225 383.76 228.5 386.154 222.418 387.583 216.225 387.99 210.034 387.573 203.954 386.144 198.225 383.76 189.615 380.336 180.484 378.404 171.225 378.045L171.225 378.045C161.967 378.413 152.838 380.345 144.225 383.76 138.5 386.154 132.417 387.583 126.225 387.99 120.034 387.573 113.954 386.144 108.225 383.76 99.6147 380.336 90.4842 378.404 81.225 378.045L81.225 378.045C71.9672 378.413 62.838 380.345 54.225 383.76 48.4997 386.154 42.4174 387.583 36.225 387.99L36.225 414.99C45.4896 414.675 54.6273 412.741 63.225 409.275 68.9454 406.82 75.0227 405.301 81.225 404.775 87.4292 405.291 93.5082 406.811 99.225 409.275 107.825 412.732 116.962 414.666 126.225 414.99L126.225 414.99C135.49 414.675 144.627 412.741 153.225 409.275 158.945 406.82 165.023 405.301 171.225 404.775 177.411 405.222 183.487 406.65 189.225 409.005 197.829 412.456 206.962 414.404 216.225 414.765 225.49 414.451 234.627 412.516 243.225 409.05 248.945 406.595 255.023 405.076 261.225 404.55 267.429 405.066 273.508 406.586 279.225 409.05 287.825 412.507 296.962 414.441 306.225 414.765L306.225 414.765C315.49 414.45 324.627 412.516 333.225 409.05 338.945 406.595 345.023 405.076 351.225 404.55 357.411 404.997 363.487 406.425 369.225 408.78 377.821 412.26 386.958 414.209 396.225 414.54L396.225 387.54C390.056 387.296 383.971 386.019 378.225 383.76Z" fill="#24346E" transform="matrix(1 0 0 1.14131 1223 599.136)"/><path d="M297 238.5C282.96 234.855 266.805 237.78 250.83 242.28L247.5 184.5 185.265 184.5 180.765 262.485C177.116 264.476 173.57 266.654 170.145 269.01 168.197 261.963 163.688 255.896 157.5 252 144.945 243.855 99.765 267.12 90 273.96 84.0483 279.502 79.1667 286.092 75.6 293.4 77.49 293.4 79.425 292.995 81.315 292.905 90.5742 293.264 99.7047 295.196 108.315 298.62 114.044 301.004 120.124 302.433 126.315 302.85 132.507 302.443 138.59 301.014 144.315 298.62 152.928 295.205 162.057 293.272 171.315 292.905 180.574 293.264 189.705 295.196 198.315 298.62 204.044 301.004 210.124 302.433 216.315 302.85 222.507 302.443 228.59 301.014 234.315 298.62 242.928 295.205 252.057 293.272 261.315 292.905 270.574 293.264 279.705 295.196 288.315 298.62 294.044 301.004 300.124 302.433 306.315 302.85 312.508 302.443 318.59 301.014 324.315 298.62 332.928 295.205 342.057 293.272 351.315 292.905 354.984 293.075 358.638 293.496 362.25 294.165 349.245 277.92 320.31 244.575 297 238.5Z" fill="#24346E" transform="matrix(1 0 0 1.14131 1223 599.136)"/><path d="M378.225 329.76C369.615 326.336 360.484 324.404 351.225 324.045L351.225 324.045C341.967 324.413 332.838 326.345 324.225 329.76 318.5 332.154 312.418 333.583 306.225 333.99L306.225 333.99C300.034 333.573 293.954 332.144 288.225 329.76 279.615 326.336 270.484 324.404 261.225 324.045L261.225 324.045C251.967 324.413 242.838 326.345 234.225 329.76 228.5 332.154 222.418 333.583 216.225 333.99 210.034 333.573 203.954 332.144 198.225 329.76 189.615 326.336 180.484 324.404 171.225 324.045L171.225 324.045C161.967 324.413 152.838 326.345 144.225 329.76 138.5 332.154 132.417 333.583 126.225 333.99 120.034 333.573 113.954 332.144 108.225 329.76 99.6147 326.336 90.4842 324.404 81.225 324.045L81.225 324.045C71.9672 324.413 62.838 326.345 54.225 329.76 48.4997 332.154 42.4174 333.583 36.225 333.99L36.225 360.99C45.4896 360.675 54.6273 358.741 63.225 355.275 68.9454 352.82 75.0227 351.301 81.225 350.775 87.4292 351.291 93.5082 352.811 99.225 355.275 107.825 358.732 116.962 360.666 126.225 360.99L126.225 360.99C135.49 360.675 144.627 358.741 153.225 355.275 158.945 352.82 165.023 351.301 171.225 350.775 177.411 351.222 183.487 352.65 189.225 355.005 197.829 358.456 206.962 360.404 216.225 360.765 225.49 360.451 234.627 358.516 243.225 355.05 248.945 352.595 255.023 351.076 261.225 350.55 267.429 351.066 273.508 352.586 279.225 355.05 287.825 358.507 296.962 360.441 306.225 360.765L306.225 360.765C315.49 360.45 324.627 358.516 333.225 355.05 338.945 352.595 345.023 351.076 351.225 350.55 357.411 350.997 363.487 352.425 369.225 354.78 377.821 358.26 386.958 360.209 396.225 360.54L396.225 333.54C390.056 333.296 383.971 332.019 378.225 329.76Z" fill="#24346E" transform="matrix(1 0 0 1.14131 1223 599.136)"/></g></g></g><g clip-path="url(#clip2)"><g clip-path="url(#clip3)"><g><path d="M185.985 171 246.465 171 241.02 80.9999 247.5 80.9999 247.5 67.5 238.5 67.5 238.5 45 243 45 243 40.5 220.5 34.02 220.5 27C220.593 24.9588 219.3 23.1109 217.35 22.5L214.65 22.5C212.7 23.1109 211.406 24.9588 211.5 27L211.5 34.02 189 40.5 189 45 193.5 45 193.5 67.5 184.5 67.5 184.5 80.9999 190.98 80.9999Z" fill="#C00000" transform="matrix(1 0 0 1.13956 1225 604.005)"/><path d="M270 54 315 54 315 63 270 63Z" fill="#C00000" transform="matrix(-1 -1.39556e-16 1.22465e-16 -1.13956 1810 737.333)"/><path d="M271.243 26.8484 317.216 26.8484 317.216 36.0431 271.243 36.0431Z" fill="#C00000" transform="matrix(-0.90432 0.426856 -0.374581 -1.03052 1790.83 545.853)"/><path d="M271.243 83.4875 317.216 83.4875 317.216 92.6822 271.243 92.6822Z" fill="#C00000" transform="matrix(-0.90432 -0.426856 0.374581 -1.03052 1746.1 918.659)"/><path d="M117 54 162 54 162 63 117 63Z" fill="#C00000" transform="matrix(1 0 0 1.13956 1225 604.005)"/><path d="M124.128 26.8484 170.101 26.8484 170.101 36.0431 124.128 36.0431Z" fill="#C00000" transform="matrix(0.90432 0.426856 -0.374581 1.03052 1247.73 543.853)"/><path d="M124.128 83.4875 170.101 83.4875 170.101 92.6822 124.128 92.6822Z" fill="#C00000" transform="matrix(0.90432 -0.426856 0.374581 1.03052 1202.95 674.258)"/><path d="M378.225 383.76C369.614 380.336 360.484 378.403 351.225 378.045L351.225 378.045C341.967 378.412 332.838 380.345 324.225 383.76 318.499 386.154 312.417 387.583 306.225 387.99L306.225 387.99C300.034 387.573 293.953 386.143 288.225 383.76 279.615 380.336 270.484 378.403 261.225 378.045L261.225 378.045C251.967 378.412 242.838 380.345 234.225 383.76 228.499 386.154 222.417 387.583 216.225 387.99 210.034 387.573 203.953 386.143 198.225 383.76 189.615 380.336 180.484 378.403 171.225 378.045L171.225 378.045C161.967 378.412 152.838 380.345 144.225 383.76 138.5 386.154 132.417 387.583 126.225 387.99 120.034 387.573 113.953 386.143 108.225 383.76 99.6146 380.336 90.4841 378.403 81.2249 378.045L81.2249 378.045C71.9671 378.412 62.838 380.345 54.225 383.76 48.4996 386.154 42.4173 387.583 36.225 387.99L36.225 414.99C45.4896 414.675 54.6273 412.741 63.225 409.275 68.9454 406.82 75.0226 405.301 81.2249 404.775 87.4291 405.29 93.5081 406.811 99.2249 409.275 107.825 412.732 116.962 414.666 126.225 414.99L126.225 414.99C135.49 414.675 144.627 412.741 153.225 409.275 158.945 406.82 165.023 405.301 171.225 404.775 177.411 405.222 183.487 406.649 189.225 409.005 197.829 412.456 206.962 414.404 216.225 414.765 225.489 414.45 234.627 412.516 243.225 409.05 248.945 406.595 255.022 405.076 261.225 404.55 267.429 405.065 273.508 406.586 279.225 409.05 287.825 412.507 296.962 414.441 306.225 414.765L306.225 414.765C315.489 414.45 324.627 412.516 333.225 409.05 338.945 406.595 345.022 405.076 351.225 404.55 357.411 404.997 363.487 406.424 369.225 408.78 377.82 412.26 386.958 414.209 396.225 414.54L396.225 387.54C390.056 387.296 383.971 386.018 378.225 383.76Z" fill="#C00000" transform="matrix(1 0 0 1.13956 1225 604.005)"/><path d="M297 238.5C282.96 234.855 266.805 237.78 250.83 242.28L247.5 184.5 185.265 184.5 180.765 262.485C177.115 264.476 173.57 266.654 170.145 269.01 168.197 261.962 163.687 255.896 157.5 252 144.945 243.855 99.7649 267.12 89.9999 273.96 84.0482 279.502 79.1666 286.091 75.5999 293.4 77.4899 293.4 79.4249 292.995 81.3149 292.905 90.5741 293.263 99.7046 295.196 108.315 298.62 114.043 301.003 120.124 302.433 126.315 302.85 132.507 302.443 138.59 301.014 144.315 298.62 152.928 295.205 162.057 293.272 171.315 292.905 180.574 293.263 189.705 295.196 198.315 298.62 204.043 301.003 210.124 302.433 216.315 302.85 222.507 302.443 228.589 301.014 234.315 298.62 242.928 295.205 252.057 293.272 261.315 292.905 270.574 293.263 279.705 295.196 288.315 298.62 294.043 301.003 300.124 302.433 306.315 302.85 312.507 302.443 318.589 301.014 324.315 298.62 332.928 295.205 342.057 293.272 351.315 292.905 354.984 293.075 358.638 293.496 362.25 294.165 349.245 277.92 320.31 244.575 297 238.5Z" fill="#C00000" transform="matrix(1 0 0 1.13956 1225 604.005)"/><path d="M378.225 329.76C369.614 326.336 360.484 324.403 351.225 324.045L351.225 324.045C341.967 324.412 332.838 326.345 324.225 329.76 318.499 332.154 312.417 333.583 306.225 333.99L306.225 333.99C300.034 333.573 293.953 332.143 288.225 329.76 279.615 326.336 270.484 324.403 261.225 324.045L261.225 324.045C251.967 324.412 242.838 326.345 234.225 329.76 228.499 332.154 222.417 333.583 216.225 333.99 210.034 333.573 203.953 332.143 198.225 329.76 189.615 326.336 180.484 324.403 171.225 324.045L171.225 324.045C161.967 324.412 152.838 326.345 144.225 329.76 138.5 332.154 132.417 333.583 126.225 333.99 120.034 333.573 113.953 332.143 108.225 329.76 99.6146 326.336 90.4841 324.403 81.2249 324.045L81.2249 324.045C71.9671 324.412 62.838 326.345 54.225 329.76 48.4996 332.154 42.4173 333.583 36.225 333.99L36.225 360.99C45.4896 360.675 54.6273 358.741 63.225 355.275 68.9454 352.82 75.0226 351.301 81.2249 350.775 87.4291 351.29 93.5081 352.811 99.2249 355.275 107.825 358.732 116.962 360.666 126.225 360.99L126.225 360.99C135.49 360.675 144.627 358.741 153.225 355.275 158.945 352.82 165.023 351.301 171.225 350.775 177.411 351.222 183.487 352.649 189.225 355.005 197.829 358.456 206.962 360.404 216.225 360.765 225.489 360.45 234.627 358.516 243.225 355.05 248.945 352.595 255.022 351.076 261.225 350.55 267.429 351.065 273.508 352.586 279.225 355.05 287.825 358.507 296.962 360.441 306.225 360.765L306.225 360.765C315.489 360.45 324.627 358.516 333.225 355.05 338.945 352.595 345.022 351.076 351.225 350.55 357.411 350.997 363.487 352.424 369.225 354.78 377.82 358.26 386.958 360.209 396.225 360.54L396.225 333.54C390.056 333.296 383.971 332.018 378.225 329.76Z" fill="#C00000" transform="matrix(1 0 0 1.13956 1225 604.005)"/></g></g></g><text fill="#24346E" font-family="Tw Cen MT,Tw Cen MT_MSFontService,sans-serif" font-weight="700" font-size="403" transform="matrix(1 0 0 1 1667.25 887)">SMYTH</text><text fill="#24346E" font-family="Tw Cen MT,Tw Cen MT_MSFontService,sans-serif" font-weight="400" font-size="179" transform="matrix(1 0 0 1 1678.62 1076)">DENTAL CENTRE</text></g></svg>